<?xml version="1.0" encoding="UTF-8" standalone="no"?>
<!-- Created with Inkscape (http://www.inkscape.org/) -->

<svg
   xmlns:dc="http://purl.org/dc/elements/1.1/"
   xmlns:cc="http://creativecommons.org/ns#"
   xmlns:rdf="http://www.w3.org/1999/02/22-rdf-syntax-ns#"
   xmlns:svg="http://www.w3.org/2000/svg"
   xmlns="http://www.w3.org/2000/svg"
   xmlns:sodipodi="http://sodipodi.sourceforge.net/DTD/sodipodi-0.dtd"
   xmlns:inkscape="http://www.inkscape.org/namespaces/inkscape"
   width="128"
   height="128"
   id="svg2"
   version="1.1"
   inkscape:version="0.47 r22583"
   sodipodi:docname="AREScolor.svg">
  <defs
     id="defs4">
    <inkscape:perspective
       sodipodi:type="inkscape:persp3d"
       inkscape:vp_x="0 : 526.18109 : 1"
       inkscape:vp_y="0 : 1000 : 0"
       inkscape:vp_z="744.09448 : 526.18109 : 1"
       inkscape:persp3d-origin="372.04724 : 350.78739 : 1"
       id="perspective10" />
    <marker
       orient="auto"
       markerHeight="3"
       markerWidth="4"
       markerUnits="strokeWidth"
       refY="5"
       refX="10"
       viewBox="0 0 10 10"
       id="ArrowStart">
      <path
         id="path2845"
         d="M 10,0 0,5 10,10 z" />
    </marker>
    <marker
       orient="auto"
       markerHeight="3"
       markerWidth="4"
       markerUnits="strokeWidth"
       refY="5"
       refX="0"
       viewBox="0 0 10 10"
       id="ArrowEnd">
      <path
         id="path2842"
         d="M 0,0 10,5 0,10 z" />
    </marker>
    <inkscape:perspective
       id="perspective2961"
       inkscape:persp3d-origin="372.04749 : 350.78752 : 1"
       inkscape:vp_z="744.09497 : 526.18127 : 1"
       inkscape:vp_y="0 : 1000 : 0"
       inkscape:vp_x="0 : 526.18127 : 1"
       sodipodi:type="inkscape:persp3d" />
  </defs>
  <sodipodi:namedview
     id="base"
     pagecolor="#ffffff"
     bordercolor="#666666"
     borderopacity="1.0"
     inkscape:pageopacity="0.0"
     inkscape:pageshadow="2"
     inkscape:zoom="6.1105913"
     inkscape:cx="63.906536"
     inkscape:cy="64.676856"
     inkscape:document-units="px"
     inkscape:current-layer="layer1"
     showgrid="false"
     inkscape:window-width="1400"
     inkscape:window-height="979"
     inkscape:window-x="0"
     inkscape:window-y="24"
     inkscape:window-maximized="1"
     width="128px" />
  <metadata
     id="metadata7">
    <rdf:RDF>
      <cc:Work
         rdf:about="">
        <dc:format>image/svg+xml</dc:format>
        <dc:type
           rdf:resource="http://purl.org/dc/dcmitype/StillImage" />
        <dc:title></dc:title>
      </cc:Work>
    </rdf:RDF>
  </metadata>
  <g
     inkscape:label="Layer 1"
     inkscape:groupmode="layer"
     id="layer1"
     transform="translate(0,-924.3622)">
    <g
       style="fill-rule:evenodd"
       id="g2968"
       transform="matrix(0.83962135,0,0,0.8434158,-189.88455,597.89778)">
      <g
         id="g2847">
        <g
           id="g2849">
          <g
             id="g2851">
            <path
               id="path2853"
               d="m 302.268,530.358 c 37.669,0 68.205,-30.537 68.205,-68.205 0,-37.667 -30.536,-68.204 -68.205,-68.204 -37.668,0 -68.204,30.537 -68.204,68.204 0,37.668 30.536,68.205 68.204,68.205 z"
               style="fill:#ffffff;stroke:#000000;stroke-width:5.05224991" />
            <path
               id="path2855"
               d="m 288.527,477.114 -9.738,14.152 -1.089,-9.447 -10.409,12.695 12.704,-21.6 0.119,12.632 6.51,-12.805 1.903,4.373 z"
               style="fill:#cccccc;stroke:none" />
            <path
               id="path2857"
               d="m 315.509,447.607 10.104,-13.894 0.842,9.473 10.736,-12.42 -13.262,21.262 0.211,-12.631 -6.843,12.631 -1.788,-4.421 z"
               style="fill:#cccccc;stroke:none" />
            <path
               id="path2859"
               d="m 320.47,464.878 c 0.687,-1.564 0.687,-4.101 0,-5.666 l -17.413,-39.657 c -0.686,-1.565 -1.8,-1.565 -2.488,0 l -17.413,39.657 c -0.686,1.565 -0.686,4.102 0,5.666 l 17.413,39.657 c 0.688,1.565 1.802,1.565 2.488,0 l 17.413,-39.657 z"
               style="fill:#ffffff;stroke:#000000;stroke-width:1.22727001;stroke-linejoin:round" />
            <path
               id="path2861"
               d="m 301.788,422.163 16.429,37.389 c 0.603,1.377 0.603,3.609 0,4.986 l -16.379,37.301 -16.427,-37.301 c -0.604,-1.377 -0.604,-3.609 0,-4.986 l 16.377,-37.389 z m -13.678,44.422 1.374,0 0,-3.501 1.45,0 c 1.038,0 1.094,0.473 1.094,1.694 0,0.923 0.055,1.384 0.149,1.807 l 1.551,0 0,-0.236 c -0.299,-0.149 -0.299,-0.474 -0.299,-1.782 0,-1.671 -0.299,-1.945 -0.85,-2.269 0.664,-0.299 1.037,-1.146 1.037,-2.131 0,-0.773 -0.327,-2.53 -2.113,-2.53 l -3.393,0 0,8.948 z m 1.374,-5.009 0,-2.394 1.749,0 c 0.822,0 0.981,0.698 0.981,1.172 0,0.885 -0.355,1.222 -1.084,1.222 l -1.646,0 z m 11.429,23.066 -1.361,0 0,7.671 4.602,0 0,-1.389 -3.241,0 0,-6.282 z m 8.741,-18.057 1.375,0 0,-3.501 1.448,0 c 1.037,0 1.093,0.473 1.093,1.694 0,0.923 0.057,1.384 0.151,1.807 l 1.551,0 0,-0.236 c -0.299,-0.149 -0.299,-0.474 -0.299,-1.782 0,-1.671 -0.299,-1.945 -0.851,-2.269 0.663,-0.299 1.038,-1.146 1.038,-2.131 0,-0.773 -0.328,-2.53 -2.113,-2.53 l -3.393,0 0,8.948 z m 1.375,-5.009 0,-2.394 1.746,0 c 0.824,0 0.983,0.698 0.983,1.172 0,0.885 -0.356,1.222 -1.084,1.222 l -1.645,0 z m -10.606,-25.699 2.416,0 0.42,1.687 1.485,0 -2.306,-8.183 -1.577,0 -2.334,8.183 1.441,0 0.455,-1.687 1.203,-4.65 0.019,0 0.811,3.237 -1.668,0 0.838,-3.237 -1.203,4.65 z"
               style="fill:#cccccc;stroke:none" />
            <path
               id="path2863"
               d="m 297.942,440.68 7.875,0 -3.937,7.656 -3.938,-7.656 z"
               style="fill:none;stroke:#ffffff;stroke-width:1.10026002;stroke-linecap:round" />
            <path
               id="path2865"
               d="m 301.906,459.19 c -2.609,-0.291 -4.554,-1.639 -4.554,-2.982 0,-1.334 1.916,-2.452 4.496,-2.753"
               style="fill:none;stroke:#ffffff;stroke-width:1.06823003;stroke-linejoin:bevel" />
            <path
               id="path2867"
               d="m 301.839,463.093 c 0.388,0.042 0.777,0.035 1.194,0.045 2.042,0.042 3.519,-0.62 3.519,-1.109 0,-0.488 -1.664,-1.152 -3.608,-1.152 -0.421,0 -0.819,0.019 -1.186,0.053"
               style="fill:none;stroke:#ffffff;stroke-width:1.06823003;stroke-linejoin:bevel" />
            <path
               id="path2869"
               d="m 301.839,463.093 c -2.609,-0.291 -4.487,-1.661 -4.487,-3.005 0,-1.333 2.005,-2.674 4.585,-2.975"
               style="fill:none;stroke:#ffffff;stroke-width:1.06823003;stroke-linejoin:bevel" />
            <path
               id="path2871"
               d="m 301.858,466.994 c 0.389,0.042 0.802,0.065 1.22,0.065 1.942,0 3.474,-0.663 3.474,-1.151 0,-0.489 -1.664,-1.064 -3.608,-1.064 -0.421,0 -0.819,0.063 -1.186,0.099"
               style="fill:none;stroke:#ffffff;stroke-width:1.06823003;stroke-linejoin:bevel" />
            <path
               id="path2873"
               d="m 301.862,466.977 c -2.67,-0.297 -4.51,-1.736 -4.51,-3.027 0,-1.333 1.827,-2.719 4.406,-3.02"
               style="fill:none;stroke:#ffffff;stroke-width:1.06823003;stroke-linejoin:bevel" />
            <path
               id="path2875"
               d="m 301.906,459.19 c 0.389,0.042 0.71,0.085 1.127,0.085 1.942,0 3.519,-0.619 3.519,-1.108 0,-0.489 -1.487,-1.108 -3.429,-1.108 -0.422,0 -0.82,0.019 -1.186,0.054"
               style="fill:none;stroke:#ffffff;stroke-width:1.06823003;stroke-linejoin:bevel" />
            <path
               id="path2877"
               d="m 302.151,470.677 -0.006,5"
               style="fill:none;stroke:#ffffff;stroke-width:1.06823003;stroke-linecap:square;stroke-linejoin:bevel" />
            <path
               id="path2879"
               d="m 301.881,453.417 0.014,-12.648"
               style="fill:none;stroke:#ffffff;stroke-width:1.06823003;stroke-linecap:square;stroke-linejoin:bevel" />
            <path
               id="path2881"
               d="m 298.298,477.446 7.833,0"
               style="fill:none;stroke:#ffffff;stroke-width:0.712152;stroke-linecap:round;stroke-linejoin:bevel" />
            <path
               id="path2883"
               d="m 299.188,479.004 6.142,0"
               style="fill:none;stroke:#ffffff;stroke-width:0.712152;stroke-linecap:round;stroke-linejoin:bevel" />
            <path
               id="path2885"
               d="m 299.986,480.562 4.497,0"
               style="fill:none;stroke:#ffffff;stroke-width:0.712152;stroke-linecap:round;stroke-linejoin:bevel" />
            <path
               id="path2887"
               d="m 301.03,482.142 2.431,0"
               style="fill:none;stroke:#ffffff;stroke-width:0.712152;stroke-linecap:round;stroke-linejoin:bevel" />
            <path
               id="path2889"
               d="m 306.933,475.933 -9.526,0"
               style="fill:none;stroke:#ffffff;stroke-width:0.712152;stroke-linecap:round;stroke-linejoin:bevel" />
            <g
               id="g2891">
              <path
                 id="path2893"
                 d="m 255.266,439.095 -6.061,-7.523 1.581,-2.586 9.458,1.961 -1.547,2.533 -1.208,-0.324 -1.548,2.532 0.846,0.917 -1.521,2.49 z m -2.946,-7.365 2.301,2.486 0.981,-1.606 -3.282,-0.88 z"
                 style="fill:#cccccc;stroke:none" />
              <path
                 id="path2895"
                 d="m 260.675,430.311 -6.635,-6.219 2.462,-2.626 5.235,2.708 -3.041,-5.049 2.463,-2.626 6.634,6.22 -1.832,1.953 -2.027,-1.901 -1.006,-0.994 -1.094,-1.234 -0.017,0.018 3.125,5.198 -1.417,1.511 -5.388,-2.783 -0.017,0.018 1.063,0.824 1.075,0.921 2.248,2.108 -1.831,1.953 z"
                 style="fill:#cccccc;stroke:none" />
              <path
                 id="path2897"
                 d="m 268.385,422.26 -2.574,-9.31 2.478,-1.747 7.902,5.558 -2.427,1.709 -0.98,-0.777 -2.426,1.71 0.412,1.177 -2.385,1.68 z m 0.223,-7.928 1.123,3.195 1.538,-1.085 -2.661,-2.11 z"
                 style="fill:#cccccc;stroke:none" />
              <path
                 id="path2899"
                 d="m 271.491,409.061 7.477,-3.688 1.056,2.141 -2.402,1.185 2.966,6.015 -2.673,1.319 -2.966,-6.016 -2.402,1.184 -1.056,-2.14 z"
                 style="fill:#cccccc;stroke:none" />
              <path
                 id="path2901"
                 d="m 283.917,413.217 -2.595,-8.716 7.106,-2.116 0.606,2.034 -4.249,1.265 0.371,1.247 3.595,-1.07 0.605,2.033 -3.595,1.07 0.408,1.368 4.418,-1.315 0.605,2.034 -7.275,2.166 z"
                 style="fill:#cccccc;stroke:none" />
              <path
                 id="path2903"
                 d="m 291.242,401.768 2.963,-0.321 0.587,5.412 c 0.097,0.892 0.356,1.639 1.574,1.507 1.067,-0.116 1.307,-0.828 1.201,-1.808 l -0.587,-5.412 2.964,-0.321 0.554,5.111 c 0.314,2.9 -0.892,4.314 -3.893,4.639 -2.8,0.304 -4.472,-0.594 -4.81,-3.708 l -0.553,-5.099 z"
                 style="fill:#cccccc;stroke:none" />
              <path
                 id="path2905"
                 d="m 305.337,406.932 -0.238,3.161 -2.972,-0.224 0.683,-9.068 4.283,0.323 c 3.023,0.229 3.956,1.122 3.823,2.885 -0.079,1.046 -0.612,1.892 -1.692,2.102 0.931,0.425 1.493,0.695 1.355,2.521 -0.016,0.215 -0.029,0.391 -0.041,0.555 -0.058,0.756 -0.053,1.034 0.236,1.056 l -0.02,0.277 -3.011,-0.227 c -0.06,-0.207 -0.092,-0.792 -0.031,-1.598 0.089,-1.184 -0.083,-1.59 -1.468,-1.694 l -0.907,-0.069 z m 0.15,-1.99 1.171,0.089 c 0.92,0.069 1.428,-0.12 1.476,-0.75 0.048,-0.643 -0.432,-0.983 -1.125,-1.035 l -1.386,-0.105 -0.136,1.801 z"
                 style="fill:#cccccc;stroke:none" />
              <path
                 id="path2907"
                 d="m 319.327,409.528 -1.041,2.994 -2.816,-0.978 2.986,-8.59 4.056,1.41 c 2.863,0.994 3.537,2.098 2.955,3.768 -0.344,0.99 -1.075,1.672 -2.173,1.598 0.791,0.649 1.265,1.054 0.664,2.785 -0.07,0.202 -0.128,0.369 -0.182,0.525 -0.249,0.715 -0.317,0.986 -0.042,1.081 l -0.091,0.263 -2.851,-0.991 c -0.006,-0.216 0.113,-0.789 0.379,-1.553 0.389,-1.121 0.327,-1.558 -0.986,-2.014 l -0.858,-0.298 z m 0.654,-1.885 1.11,0.385 c 0.871,0.303 1.411,0.25 1.618,-0.347 0.212,-0.608 -0.166,-1.06 -0.822,-1.288 l -1.313,-0.456 -0.593,1.706 z"
                 style="fill:#cccccc;stroke:none" />
              <path
                 id="path2909"
                 d="m 323.783,414.422 7.32,-6.303 2.637,1.495 -1.652,9.518 -2.582,-1.464 0.284,-1.218 -2.581,-1.464 -0.889,0.875 -2.537,-1.439 z m 7.264,-3.183 -2.409,2.379 1.637,0.929 0.772,-3.308 z"
                 style="fill:#cccccc;stroke:none" />
              <path
                 id="path2911"
                 d="m 332.515,419.504 5.83,-6.98 3.063,2.558 c 2.249,1.879 2.771,4.092 0.851,6.389 -2.194,2.627 -4.499,2.413 -6.739,0.542 l -3.005,-2.509 z m 3.648,0.281 0.484,0.405 c 1.067,0.891 2.118,0.815 3.22,-0.503 1.214,-1.455 1.063,-2.239 -0.159,-3.259 l -0.436,-0.365 -3.109,3.722 z"
                 style="fill:#cccccc;stroke:none" />
              <path
                 id="path2913"
                 d="m 339.685,425.837 6.702,-6.147 2.015,2.197 -6.703,6.147 -2.014,-2.197 z"
                 style="fill:#cccccc;stroke:none" />
              <path
                 id="path2915"
                 d="m 351.788,434.07 c -2.552,1.748 -5.169,1.014 -6.689,-1.205 -1.614,-2.354 -1.233,-4.927 1.32,-6.676 2.355,-1.614 4.978,-1.069 6.578,1.265 1.834,2.678 0.771,5.259 -1.209,6.616 z m -3.704,-5.408 c -0.96,0.656 -1.958,1.769 -1.151,2.947 0.728,1.062 1.931,0.851 3.17,0.001 1.011,-0.692 1.795,-1.827 1.046,-2.921 -0.765,-1.114 -2.118,-0.677 -3.065,-0.027 z"
                 style="fill:#cccccc;stroke:none" />
            </g>
            <g
               id="g2917">
              <path
                 id="path2919"
                 d="m 241.591,471.308 8.9,-1.868 1.522,7.256 -2.077,0.436 -0.91,-4.339 -1.273,0.268 0.77,3.67 -2.076,0.437 -0.771,-3.672 -1.397,0.293 0.947,4.512 -2.077,0.435 -1.558,-7.428 z"
                 style="fill:#cccccc;stroke:none" />
              <path
                 id="path2921"
                 d="m 243.795,481.186 8.379,-3.531 1.398,3.318 -4.603,3.679 5.849,-0.724 1.397,3.318 -8.38,3.531 -1.039,-2.468 2.56,-1.079 1.318,-0.514 1.572,-0.497 -0.01,-0.024 -6.019,0.741 -0.804,-1.909 4.734,-3.79 -0.009,-0.024 -1.185,0.637 -1.279,0.607 -2.84,1.197 -1.039,-2.468 z"
                 style="fill:#cccccc;stroke:none" />
              <path
                 id="path2923"
                 d="m 249.338,493.244 7.562,-5.051 4.118,6.165 -1.765,1.179 -2.462,-3.687 -1.082,0.723 2.084,3.119 -1.764,1.178 -2.084,-3.118 -1.187,0.792 2.561,3.833 -1.765,1.179 -4.216,-6.312 z"
                 style="fill:#cccccc;stroke:none" />
              <path
                 id="path2925"
                 d="m 259.332,501.35 -2.302,2.179 -2.05,-2.165 6.606,-6.25 2.951,3.119 c 2.084,2.202 2.174,3.491 0.889,4.706 -0.762,0.72 -1.725,0.989 -2.665,0.417 0.403,0.941 0.637,1.519 -0.693,2.778 -0.156,0.148 -0.284,0.27 -0.404,0.382 -0.55,0.521 -0.735,0.731 -0.535,0.942 l -0.202,0.19 -2.074,-2.192 c 0.094,-0.194 0.464,-0.648 1.051,-1.204 0.862,-0.816 1.008,-1.232 0.053,-2.241 l -0.625,-0.661 z m 1.449,-1.371 0.808,0.853 c 0.634,0.67 1.137,0.871 1.596,0.437 0.468,-0.442 0.34,-1.018 -0.137,-1.522 l -0.955,-1.009 -1.312,1.241 z"
                 style="fill:#cccccc;stroke:none" />
              <path
                 id="path2927"
                 d="m 269.848,514.443 -1.552,-1.131 0.437,-0.791 c -0.741,0.178 -1.716,0.124 -2.87,-0.717 -1.878,-1.369 -2.676,-3.811 -0.809,-6.372 1.711,-2.348 4.356,-2.889 6.734,-1.155 1.766,1.287 2.515,3.239 1.494,5.261 l -2.286,-1.666 c 0.265,-0.729 0.065,-1.375 -0.558,-1.83 -0.949,-0.691 -2.023,-0.161 -2.968,1.135 -0.759,1.042 -1.124,2.228 0.09,3.114 0.49,0.357 1.358,0.474 1.853,0.053 l -1.062,-0.774 1.161,-1.592 3.297,2.403 -2.961,4.062 z"
                 style="fill:#cccccc;stroke:none" />
              <path
                 id="path2929"
                 d="m 272.307,515.812 3.984,-8.175 6.664,3.248 -0.929,1.907 -3.985,-1.942 -0.57,1.17 3.371,1.643 -0.929,1.907 -3.372,-1.643 -0.625,1.283 4.144,2.019 -0.93,1.908 -6.823,-3.325 z"
                 style="fill:#cccccc;stroke:none" />
              <path
                 id="path2931"
                 d="m 288.354,517.72 0.455,-2.025 0.787,-2.783 2.747,0.778 -2.477,8.75 -2.686,-0.761 -1.775,-5.647 -0.454,2.024 -0.785,2.771 -2.746,-0.778 2.476,-8.75 2.686,0.761 1.772,5.66 z"
                 style="fill:#cccccc;stroke:none" />
              <path
                 id="path2933"
                 d="m 298.801,517.85 c 0,-0.951 -0.54,-1.547 -1.47,-1.633 -1.044,-0.098 -1.756,0.736 -1.92,2.483 -0.119,1.271 0.046,2.491 1.555,2.632 0.956,0.089 1.471,-0.535 1.666,-1.391 l 2.854,0.266 c -0.483,2.315 -2.287,3.566 -4.677,3.343 -2.992,-0.28 -4.632,-2.285 -4.356,-5.228 0.274,-2.93 2.432,-4.568 4.959,-4.331 2.767,0.258 4.185,1.774 4.207,4.123 l -2.818,-0.264 z"
                 style="fill:#cccccc;stroke:none" />
              <path
                 id="path2935"
                 d="m 308.937,523.243 -2.971,0.24 -0.268,-3.298 -3.841,-5.492 3.324,-0.27 1.81,2.946 1.312,-3.199 3.273,-0.265 -2.911,5.989 0.272,3.349 z"
                 style="fill:#cccccc;stroke:none" />
              <path
                 id="path2937"
                 d="m 321.092,513.865 c -0.151,-0.283 -0.366,-0.409 -0.607,-0.448 -0.239,-0.039 -0.506,0 -0.782,0.092 -0.621,0.212 -0.835,0.485 -0.73,0.795 0.439,1.292 5.117,-1.192 6.183,1.941 0.679,1.997 -0.655,3.531 -3.022,4.335 -2.272,0.773 -4.206,-0.051 -4.795,-1.585 l 2.703,-0.918 c 0.166,0.29 0.41,0.46 0.698,0.523 0.277,0.066 0.6,0.036 0.874,-0.057 0.706,-0.24 1.095,-0.626 0.957,-1.032 -0.443,-1.304 -5.089,1.276 -6.207,-2.012 -0.622,-1.83 0.643,-3.288 2.796,-4.019 2.392,-0.813 3.894,0.037 4.61,1.474 l -2.678,0.911 z"
                 style="fill:#cccccc;stroke:none" />
              <path
                 id="path2939"
                 d="m 328.184,518.022 -4.295,-8.015 6.535,-3.502 1.002,1.871 -3.908,2.093 0.615,1.146 3.307,-1.771 1.002,1.87 -3.307,1.772 0.674,1.258 4.064,-2.177 1.002,1.87 -6.691,3.585 z"
                 style="fill:#cccccc;stroke:none" />
              <path
                 id="path2941"
                 d="m 337.22,508.859 1.946,2.502 -2.352,1.83 -5.584,-7.177 3.389,-2.637 c 2.393,-1.862 3.684,-1.826 4.77,-0.431 0.644,0.827 0.818,1.813 0.159,2.693 0.975,-0.31 1.573,-0.487 2.697,0.958 0.132,0.17 0.241,0.31 0.342,0.439 0.464,0.598 0.655,0.801 0.885,0.624 l 0.171,0.219 -2.384,1.853 c -0.183,-0.113 -0.599,-0.525 -1.096,-1.163 -0.729,-0.936 -1.13,-1.121 -2.225,-0.269 l -0.718,0.559 z m -1.226,-1.575 0.928,-0.721 c 0.727,-0.567 0.977,-1.048 0.589,-1.547 -0.396,-0.508 -0.981,-0.438 -1.529,-0.011 l -1.097,0.854 1.109,1.425 z"
                 style="fill:#cccccc;stroke:none" />
              <path
                 id="path2943"
                 d="m 338.134,500.646 2.015,-2.231 5.556,2.875 -3.38,-5.283 2.015,-2.231 4.631,8.439 -2.006,2.221 -8.831,-3.79 z"
                 style="fill:#cccccc;stroke:none" />
              <path
                 id="path2945"
                 d="m 352.165,498.178 -7.49,-5.157 1.691,-2.454 7.49,5.156 -1.691,2.455 z"
                 style="fill:#cccccc;stroke:none" />
              <path
                 id="path2947"
                 d="m 352.901,485.952 c -0.885,-0.35 -1.639,-0.067 -2.062,0.767 -0.475,0.934 0.039,1.903 1.603,2.698 1.137,0.578 2.333,0.874 3.02,-0.477 0.435,-0.856 0.044,-1.564 -0.682,-2.06 l 1.3,-2.556 c 1.973,1.301 2.473,3.439 1.387,5.578 -1.362,2.68 -3.83,3.466 -6.465,2.127 -2.624,-1.333 -3.352,-3.942 -2.202,-6.205 1.259,-2.478 3.19,-3.239 5.382,-2.394 l -1.281,2.522 z"
                 style="fill:#cccccc;stroke:none" />
              <path
                 id="path2949"
                 d="m 360.017,483.74 -8.69,-2.678 2.183,-7.085 2.028,0.625 -1.305,4.236 1.243,0.384 1.105,-3.586 2.027,0.625 -1.104,3.585 1.363,0.421 1.358,-4.406 2.027,0.625 -2.235,7.254 z"
                 style="fill:#cccccc;stroke:none" />
            </g>
            <path
               id="path2951"
               d="m 302.085,470.633 c -2.611,-0.291 -4.733,-1.24 -4.733,-2.82 0,-1.334 1.827,-2.57 4.406,-2.87"
               style="fill:none;stroke:#ffffff;stroke-width:1.06823003;stroke-linecap:square;stroke-linejoin:bevel" />
            <path
               id="path2953"
               d="m 356.933,467.709 c 1.116,0.383 1.708,1.595 1.327,2.71 -0.382,1.114 -1.595,1.707 -2.709,1.324 -1.114,-0.383 -1.708,-1.594 -1.325,-2.708 0.383,-1.115 1.595,-1.707 2.707,-1.326"
               style="fill:none;stroke:#000000;stroke-width:0.21602701;stroke-linejoin:bevel" />
          </g>
        </g>
      </g>
      <g
         id="g2955" />
    </g>
    <path
       style="fill:#0000ff;stroke:#75006a;stroke-width:0.29849109;stroke-linecap:round;stroke-linejoin:round;stroke-miterlimit:4;stroke-opacity:0.39256197;stroke-dasharray:none"
       d="m 56.621895,80.784069 c -3.856271,-8.797452 -6.948523,-16.080785 -7.046059,-16.595925 -0.115918,-0.612233 -0.114374,-1.239584 0.0046,-1.883371 0.107779,-0.583033 2.824176,-7.033428 6.858934,-16.287327 3.674265,-8.42709 6.774507,-15.501437 6.889428,-15.720772 0.18765,-0.358143 0.910942,1.207573 7.096447,15.361734 3.788126,8.668286 6.958742,16.153162 7.045814,16.633055 0.09289,0.511965 0.09401,1.267627 0.0027,1.828616 -0.10262,0.630522 -2.469034,6.252477 -6.949526,16.510183 -3.736655,8.554755 -6.847068,15.616562 -6.912029,15.692902 -0.06496,0.07634 -3.21062,-6.916251 -6.990353,-15.539095 l 3e-6,0 z m 8.923235,7.411267 0,-0.702332 -1.316872,0 -1.316873,0 0,-2.633745 0,-2.633745 -0.702332,0 -0.702331,0 0,3.336077 0,3.336077 2.019204,0 2.019204,0 0,-0.702332 z M 64.916229,80.53869 c 0.152755,-0.05862 0.277735,-0.256147 0.277735,-0.438957 0,-0.294606 -0.140314,-0.33238 -1.234591,-0.33238 -0.970033,0 -1.257706,0.06024 -1.342458,0.281094 -0.05933,0.154602 0.0024,0.350924 0.137198,0.436269 0.27982,0.177181 1.745684,0.213774 2.162116,0.05397 l 0,0 z m 1.122491,-1.693148 c 0.05358,-0.27947 -0.140833,-0.30727 -2.148754,-0.30727 -2.101759,0 -2.207661,0.0171 -2.207661,0.35657 0,0.341632 0.09002,0.354506 2.148753,0.30727 1.883839,-0.04322 2.156017,-0.08718 2.207662,-0.35657 z m 0.735491,-1.365118 c 0,-0.344349 -0.08954,-0.353999 -2.850991,-0.30727 -2.553262,0.04321 -2.857152,0.08033 -2.909993,0.355515 -0.05428,0.282652 0.174146,0.307271 2.85099,0.307271 2.804806,0 2.909994,-0.01285 2.909994,-0.355516 z m 0.669026,-1.268627 c 0.0547,-0.284595 -0.207518,-0.30727 -3.553271,-0.30727 -3.507608,0 -3.612325,0.01028 -3.612325,0.354802 0,0.34589 0.08924,0.353607 3.55327,0.30727 3.222512,-0.04311 3.558768,-0.07613 3.612326,-0.354802 z m 0.647847,-1.272977 c 0,-0.326298 -0.133668,-0.354695 -1.887517,-0.401001 l -1.887518,-0.04984 0,-2.256408 0,-2.256407 -0.931714,-0.116411 c -1.247157,-0.155821 -2.703112,-0.845986 -2.956124,-1.401286 -0.25988,-0.570373 0.227452,-1.434057 0.696519,-1.234422 1.34314,0.571642 1.836116,0.671424 3.366902,0.681487 1.44129,0.0095 1.78738,-0.0487 2.545954,-0.427993 0.755288,-0.377644 0.877915,-0.511159 0.877915,-0.955865 0,-0.707202 -0.727255,-1.104868 -2.480243,-1.356205 -1.35439,-0.194187 -2.126477,-0.09052 -4.251477,0.570847 -0.129331,0.04025 -0.390916,-0.129858 -0.581299,-0.378021 -0.30069,-0.391949 -0.317161,-0.514834 -0.125409,-0.935684 0.238704,-0.523897 0.159111,-0.522754 1.901932,-0.02732 1.791759,0.509344 4.432381,0.243657 5.289724,-0.532228 1.72307,-1.559357 -2.974428,-2.840231 -6.017441,-1.640787 l -0.834107,0.328774 -0.26977,-0.385152 c -0.34747,-0.496081 -0.339834,-0.708335 0.04247,-1.180456 l 0.312238,-0.385598 1.109821,0.373872 c 1.900983,0.640395 4.839588,0.456688 5.64945,-0.353174 1.14589,-1.14589 -0.840059,-2.247421 -3.698633,-2.051489 -0.796922,0.05462 -1.691739,0.240833 -2.16653,0.450856 l -0.808867,0.3578 -0.354859,-0.451129 c -0.426361,-0.542032 -0.428594,-0.57153 -0.08083,-1.06804 0.363367,-0.518779 1.012544,-0.838287 2.423169,-1.192626 l 1.165623,-0.292795 0,-2.270186 0,-2.270187 1.75583,-3.48516 c 0.965707,-1.916838 1.75583,-3.532562 1.75583,-3.590498 0,-0.05794 -1.860079,-0.105337 -4.133509,-0.105337 l -4.133508,0 1.85093,3.656479 1.850929,3.656479 0,1.783249 0,1.783249 -0.482853,0.1061 c -1.499122,0.329414 -2.707657,1.041198 -3.119247,1.837126 -0.347202,0.671416 -0.329664,0.970677 0.110129,1.879168 0.341214,0.704856 0.348397,0.790898 0.08988,1.076559 -0.490497,0.541994 -0.540665,1.343393 -0.133052,2.125417 l 0.369235,0.708391 -0.347801,0.570436 c -0.441448,0.724027 -0.437753,1.06658 0.02174,2.015768 0.341214,0.704855 0.348397,0.790898 0.08988,1.076559 -0.455127,0.50291 -0.531973,1.313315 -0.192392,2.028928 0.359316,0.757202 1.34622,1.388119 2.720828,1.739396 l 0.96145,0.245695 0.05004,1.780055 0.05004,1.780055 -1.726855,0 c -1.736879,0 -2.214236,0.150503 -2.026777,0.639013 0.07757,0.202145 0.836094,0.23683 4.331958,0.198082 4.105209,-0.0455 4.237922,-0.05797 4.237922,-0.398138 z m -14.836763,-9.305898 0,-1.492456 0.626083,0 c 1.062488,0 1.304999,0.237213 1.307727,1.279154 0.0039,1.503449 0.109807,1.705757 0.892637,1.705757 l 0.678495,0 -0.09045,-0.834019 c -0.04975,-0.458711 -0.127351,-1.181603 -0.172454,-1.606428 -0.0451,-0.424825 -0.159319,-0.865568 -0.253814,-0.979428 -0.115856,-0.139598 -0.0586,-0.429076 0.175812,-0.888859 0.422109,-0.827941 0.434469,-1.261348 0.06249,-2.191029 -0.398475,-0.995887 -0.936316,-1.225888 -2.866637,-1.225888 l -1.588966,0 0,3.862825 0,3.862826 0.614541,0 0.61454,0 0,-1.492455 z m 18.085048,0 0,-1.492456 0.626083,0 c 1.062488,0 1.305,0.237213 1.307727,1.279154 0.0039,1.492615 0.112573,1.705757 0.869625,1.705757 l 0.655485,0 -0.07981,-1.360768 c -0.0439,-0.748422 -0.18278,-1.575611 -0.308633,-1.838198 -0.198,-0.413118 -0.183697,-0.565942 0.10618,-1.13452 0.391089,-0.767096 0.41029,-1.080938 0.12449,-2.034849 -0.321696,-1.073727 -0.926049,-1.355859 -2.906084,-1.35666 l -1.624143,-6.56e-4 0,3.862825 0,3.862826 0.614541,0 0.61454,0 0,-1.492455 z m -9.130316,-23.615912 0.189119,-0.702332 0.952171,0 0.952171,0 0.189118,0.702332 c 0.181397,0.673657 0.218353,0.702332 0.905161,0.702332 0.596963,0 0.702042,-0.0511 0.631854,-0.307271 -0.0463,-0.168998 -0.501099,-1.792756 -1.010655,-3.608351 l -0.926466,-3.301081 -0.715335,0.0528 -0.715334,0.05279 -1.010999,3.51166 c -0.55605,1.931413 -1.013261,3.531413 -1.016025,3.555556 -0.0028,0.02414 0.307977,0.0439 0.690538,0.0439 0.662916,0 0.704441,-0.03297 0.884682,-0.702332 z"
       id="path2874"
       transform="translate(0,924.3622)" />
    <path
       style="fill:#0000ff;stroke:#75006a;stroke-width:0.29849109;stroke-linecap:round;stroke-linejoin:round;stroke-miterlimit:4;stroke-opacity:0.39256197;stroke-dasharray:none"
       d="m 62.07455,47.547874 -0.916895,-1.843622 0.964657,0 0.964656,0 0,1.843622 c 0,1.013992 -0.02149,1.843621 -0.04776,1.843621 -0.02627,0 -0.460364,-0.829629 -0.964656,-1.843621 z"
       id="path2876"
       transform="translate(0,924.3622)" />
    <path
       style="fill:#0000ff;stroke:#75006a;stroke-width:0.29849109;stroke-linecap:round;stroke-linejoin:round;stroke-miterlimit:4;stroke-opacity:0.39256197;stroke-dasharray:none"
       d="m 64.149385,47.503978 -0.0089,-1.799726 0.877915,0 c 0.482854,0 0.873902,0.05926 0.868996,0.131688 -0.0049,0.07243 -0.395953,0.882304 -0.868996,1.799725 l -0.860076,1.668039 -0.0089,-1.799726 z"
       id="path2878"
       transform="translate(0,924.3622)" />
    <path
       style="fill:#0000ff;stroke:#75006a;stroke-width:0.29849109;stroke-linecap:round;stroke-linejoin:round;stroke-miterlimit:4;stroke-opacity:0.39256197;stroke-dasharray:none"
       d="m 63.063669,38.739912 0.279966,-1.170102 0.195849,0.687249 c 0.48808,1.712711 0.493931,1.652955 -0.161845,1.652955 l -0.593935,0 0.279965,-1.170102 0,0 z"
       id="path2880"
       transform="translate(0,924.3622)" />
    <path
       style="fill:#0000ff;stroke:#75006a;stroke-width:0.29849109;stroke-linecap:round;stroke-linejoin:round;stroke-miterlimit:4;stroke-opacity:0.39256197;stroke-dasharray:none"
       d="m 53.254321,61.857888 0,-0.877915 0.842798,0 c 0.952365,0 1.264198,0.21655 1.264198,0.877915 0,0.661364 -0.311833,0.877914 -1.264198,0.877914 l -0.842798,0 0,-0.877914 z"
       id="path2882"
       transform="translate(0,924.3622)" />
    <path
       style="fill:#0000ff;stroke:#75006a;stroke-width:0.29849109;stroke-linecap:round;stroke-linejoin:round;stroke-miterlimit:4;stroke-opacity:0.39256197;stroke-dasharray:none"
       d="m 71.339369,61.857888 0,-0.877915 0.842798,0 c 0.952365,0 1.264198,0.21655 1.264198,0.877915 0,0.661364 -0.311833,0.877914 -1.264198,0.877914 l -0.842798,0 0,-0.877914 z"
       id="path2884"
       transform="translate(0,924.3622)" />
    <path
       style="fill:#0000ff;stroke:#75006a;stroke-width:0.29849109;stroke-linecap:round;stroke-linejoin:round;stroke-miterlimit:4;stroke-opacity:0.39256197;stroke-dasharray:none"
       d="m 62.735802,60.111908 c -0.405171,-0.120667 -0.378143,-0.147853 0.351166,-0.353214 1.27305,-0.358469 4.23136,-0.02823 3.236631,0.361311 -0.433412,0.169725 -3.010236,0.16391 -3.587797,-0.0081 z"
       id="path2886"
       transform="translate(0,924.3622)" />
    <path
       style="fill:#0000ff;stroke:#75006a;stroke-width:0.29849109;stroke-linecap:round;stroke-linejoin:round;stroke-miterlimit:4;stroke-opacity:0.39256197;stroke-dasharray:none"
       d="m 62.648011,63.37405 -0.702332,-0.233075 0.702332,-0.155235 c 1.453484,-0.321262 4.210995,-0.08892 3.801747,0.320332 -0.293213,0.293213 -2.978362,0.341226 -3.801747,0.06798 z"
       id="path2888"
       transform="translate(0,924.3622)" />
    <path
       style="fill:#0000ff;stroke:#75006a;stroke-width:0.29849109;stroke-linecap:round;stroke-linejoin:round;stroke-miterlimit:4;stroke-opacity:0.39256197;stroke-dasharray:none"
       d=""
       id="path2890"
       transform="translate(0,924.3622)" />
    <path
       style="fill:#0000ff;stroke:#75006a;stroke-width:0.29849109;stroke-linecap:round;stroke-linejoin:round;stroke-miterlimit:4;stroke-opacity:0.39256197;stroke-dasharray:none"
       d=""
       id="path2892"
       transform="translate(0,924.3622)" />
    <path
       style="fill:#0000ff;stroke:#75006a;stroke-width:0.02638313;stroke-linecap:round;stroke-linejoin:round;stroke-miterlimit:4;stroke-opacity:0.39256197;stroke-dasharray:none"
       d="m 64.160099,66.990479 c -0.702766,-0.03419 -1.474455,-0.189464 -2.060212,-0.414534 -0.08322,-0.03198 -0.151315,-0.06241 -0.151315,-0.06762 0,-0.01456 0.417063,-0.146969 0.651818,-0.206937 0.434966,-0.111111 1.051892,-0.201441 1.64668,-0.241107 0.806932,-0.05381 1.986904,0.127853 2.565052,0.39491 l 0.110447,0.05102 -0.178475,0.08669 c -0.615754,0.299088 -1.574972,0.446676 -2.583995,0.397582 z"
       id="path2894"
       transform="translate(0,924.3622)" />
    <path
       style="fill:#0000ff;stroke:#75006a;stroke-width:0.02638313;stroke-linecap:round;stroke-linejoin:round;stroke-miterlimit:4;stroke-opacity:0.39256197;stroke-dasharray:none"
       d="m 74.103369,63.603919 c -0.01113,-0.01351 -0.0656,-0.05412 -0.121042,-0.09024 l -0.1008,-0.06567 0.09776,-0.06134 c 0.05377,-0.03374 0.112048,-0.07447 0.129508,-0.09052 l 0.03174,-0.02918 -0.0053,0.151038 c -0.0076,0.217155 -0.0074,0.215607 -0.03185,0.185911 z"
       id="path2896"
       transform="translate(0,924.3622)" />
    <path
       style="fill:#0000ff;stroke:#75006a;stroke-width:0.14924555;stroke-linecap:round;stroke-linejoin:round;stroke-miterlimit:4;stroke-opacity:0.39256197;stroke-dasharray:none"
       d="m 14.174225,76.63894 c -0.273398,-1.254673 -1.162779,-5.53659 -1.152791,-5.550101 0.02211,-0.02991 7.142949,-1.5224 7.263523,-1.5224 0.168267,0 1.420332,5.89444 1.270697,5.982154 -0.234752,0.13761 -1.49041,0.338532 -1.546677,0.24749 -0.03197,-0.05173 -0.20861,-0.832582 -0.392537,-1.735235 -0.183926,-0.902652 -0.362944,-1.673775 -0.397817,-1.713607 -0.03487,-0.03983 -0.304871,-0.02492 -0.599996,0.03315 -0.479094,0.09426 -0.532054,0.125534 -0.494243,0.2919 0.154639,0.680405 0.569916,2.734507 0.569916,2.819 0,0.09186 -1.15285,0.39614 -1.500897,0.39614 -0.10518,0 -0.200659,-0.314266 -0.420092,-1.382716 -0.156186,-0.760494 -0.302763,-1.44764 -0.325727,-1.526991 -0.03834,-0.132462 -0.09003,-0.1334 -0.6314,-0.01145 -0.324307,0.07305 -0.600529,0.142274 -0.613828,0.153823 -0.01963,0.01704 0.564726,2.931548 0.723587,3.608936 0.03925,0.167349 -0.02871,0.198133 -0.78685,0.356452 l -0.829805,0.173284 -0.135063,-0.619826 0,0 z"
       id="path2898"
       transform="translate(0,924.3622)" />
    <path
       style="fill:#0000ff;stroke:#75006a;stroke-width:0.14924555;stroke-linecap:round;stroke-linejoin:round;stroke-miterlimit:4;stroke-opacity:0.39256197;stroke-dasharray:none"
       d="m 17.932689,86.707728 c -0.153276,-0.374211 -0.33888,-0.822395 -0.412453,-0.995964 l -0.133769,-0.315581 1.422092,-0.593251 c 0.782151,-0.326288 1.807277,-0.71703 2.278059,-0.868316 0.470782,-0.151285 0.855967,-0.306027 0.855967,-0.343869 0,-0.03784 -0.08889,-0.04951 -0.19753,-0.02593 -0.421917,0.09158 -4.639278,0.586199 -4.770036,0.559441 -0.07975,-0.01632 -0.268695,-0.342861 -0.445814,-0.770492 -0.256839,-0.620101 -0.287126,-0.757273 -0.184147,-0.834019 0.750888,-0.559603 3.830597,-3.073233 3.801269,-3.10256 -0.02133,-0.02133 -0.434989,0.164727 -0.919235,0.413467 -0.484246,0.248741 -1.476054,0.704439 -2.204018,1.012662 l -1.323569,0.560408 -0.08618,-0.226666 c -0.0474,-0.124667 -0.228605,-0.558204 -0.402683,-0.963417 -0.184947,-0.430515 -0.283914,-0.768854 -0.238097,-0.813986 0.0846,-0.08333 6.687973,-2.897687 6.798897,-2.897687 0.0368,0 0.32065,0.601116 0.630778,1.335813 l 0.56387,1.335814 -1.912169,1.539358 c -1.051692,0.846647 -1.854959,1.552105 -1.785037,1.567684 0.06992,0.01558 1.115062,-0.09593 2.322534,-0.247805 1.207473,-0.151871 2.260677,-0.263383 2.340454,-0.247804 0.09477,0.01851 0.335161,0.484806 0.69349,1.345198 0.301641,0.72428 0.542139,1.323721 0.534439,1.33209 -0.02151,0.02339 -6.884945,2.925798 -6.918732,2.925798 -0.01633,0 -0.155105,-0.306173 -0.308381,-0.680385 l 0,0 z"
       id="path2900"
       transform="translate(0,924.3622)" />
    <path
       style="fill:#0000ff;stroke:#75006a;stroke-width:0.14924555;stroke-linecap:round;stroke-linejoin:round;stroke-miterlimit:4;stroke-opacity:0.39256197;stroke-dasharray:none"
       d="m 21.316054,92.24257 c -0.924851,-1.386015 -1.685686,-2.568152 -1.690745,-2.626971 -0.0067,-0.07756 5.036662,-3.558871 6.067378,-4.188184 0.07231,-0.04415 0.645838,0.74271 1.777778,2.439078 0.919063,1.377341 1.671023,2.538892 1.671023,2.581224 0,0.04233 -0.300782,0.275611 -0.668405,0.518398 l -0.668405,0.441431 -0.96542,-1.46102 c -0.530981,-0.803561 -0.999182,-1.497164 -1.040447,-1.541339 -0.04425,-0.04738 -0.274554,0.05216 -0.56152,0.242693 l -0.486493,0.323013 0.878208,1.313109 0.878207,1.313109 -0.654206,0.441454 c -0.359814,0.2428 -0.69147,0.441454 -0.737014,0.441454 -0.04554,0 -0.447431,-0.562963 -0.893083,-1.251029 -0.445651,-0.688065 -0.82363,-1.266132 -0.839953,-1.284593 -0.06635,-0.07503 -1.086021,0.655955 -1.049922,0.752673 0.02147,0.05751 0.468472,0.748871 0.993347,1.536352 0.524875,0.78748 0.982449,1.479205 1.016831,1.537167 0.04021,0.06778 -0.171889,0.263557 -0.594448,0.548696 -0.361328,0.243823 -0.678157,0.443313 -0.704063,0.443313 -0.02591,0 -0.803798,-1.134013 -1.728648,-2.520028 z"
       id="path2902"
       transform="translate(0,924.3622)" />
    <path
       style="fill:#0000ff;stroke:#75006a;stroke-width:0.14924555;stroke-linecap:round;stroke-linejoin:round;stroke-miterlimit:4;stroke-opacity:0.39256197;stroke-dasharray:none"
       d="m 28.362146,100.73941 c -0.440498,-0.47737 -0.800905,-0.895636 -0.800905,-0.929471 0,-0.03383 0.316049,-0.413615 0.702332,-0.843955 0.525899,-0.58588 0.702332,-0.84445 0.702332,-1.0293 0,-0.285185 -0.377275,-0.889709 -0.82592,-1.323407 l -0.310559,-0.300213 -0.917115,0.902488 c -0.504413,0.496369 -0.953547,0.888255 -0.998076,0.870858 -0.09985,-0.03901 -1.601279,-1.61643 -1.601279,-1.682322 0,-0.07479 5.356539,-5.15315 5.435423,-5.15315 0.08247,0 2.788327,2.883678 3.130354,3.336077 0.381027,0.503985 0.739977,1.331531 0.740052,1.706164 1.85e-4,0.925221 -1.05256,1.981079 -1.975239,1.981079 -0.172101,0 -0.449913,-0.05724 -0.617361,-0.127208 -0.349321,-0.145955 -0.353366,-0.135421 -0.162778,0.423924 0.131338,0.385454 0.130822,0.444197 -0.0071,0.805243 -0.08181,0.214201 -0.365656,0.616852 -0.630781,0.894773 -0.811203,0.85038 -1.00209,1.08334 -0.95289,1.16295 0.02599,0.0421 0.01196,0.0983 -0.03118,0.12495 -0.04314,0.0267 -0.438849,-0.3421 -0.879347,-0.81948 l 0,0 z m 2.792174,-4.4523 c 0.201909,-0.256686 0.232323,-0.680391 0.06911,-0.962741 -0.05865,-0.101452 -0.311375,-0.412526 -0.561622,-0.691276 l -0.454993,-0.506819 -0.576557,0.509335 c -0.317106,0.280134 -0.576556,0.52788 -0.576556,0.550547 0,0.02267 0.144279,0.217286 0.320622,0.432489 0.7132,0.870367 1.41413,1.133595 1.780001,0.668465 l 0,0 z"
       id="path2904"
       transform="translate(0,924.3622)" />
    <path
       style="fill:#0000ff;stroke:#75006a;stroke-width:0.14924555;stroke-linecap:round;stroke-linejoin:round;stroke-miterlimit:4;stroke-opacity:0.39256197;stroke-dasharray:none"
       d="m 36.164808,106.9959 c -0.217284,-0.17151 -0.467104,-0.36289 -0.555154,-0.42528 -0.154465,-0.10945 -0.154024,-0.12533 0.01253,-0.45181 l 0.172627,-0.33838 -0.63166,0 c -0.54277,0 -0.713263,-0.0414 -1.21153,-0.29433 -1.757359,-0.89198 -2.515148,-2.70041 -1.876215,-4.47749 0.210953,-0.58672 0.887904,-1.54446 1.402269,-1.983896 0.803803,-0.686709 1.961327,-1.081355 2.814347,-0.959521 1.20241,0.171736 2.560601,1.071291 3.168788,2.098747 0.292344,0.49388 0.509229,1.39493 0.441514,1.83428 -0.07446,0.48313 -0.316158,1.20759 -0.391964,1.17488 -0.03368,-0.0145 -0.443316,-0.30296 -0.910309,-0.64095 l -0.849078,-0.61454 -0.003,-0.50455 c -0.0027,-0.45428 -0.03454,-0.5395 -0.319873,-0.85533 -0.794453,-0.879369 -1.894166,-0.572867 -2.7924,0.77827 -0.698957,1.05138 -0.745441,1.75467 -0.15683,2.37281 0.479271,0.50332 1.306259,0.66965 1.773686,0.35674 0.111081,-0.0744 0.09497,-0.11574 -0.102935,-0.26445 -0.129043,-0.097 -0.324865,-0.24937 -0.435161,-0.33868 l -0.200538,-0.16238 0.328622,-0.47174 c 0.180742,-0.25946 0.383105,-0.54386 0.449697,-0.63202 0.112996,-0.14958 0.206534,-0.0977 1.401789,0.77709 0.704393,0.51555 1.301744,0.97139 1.327448,1.01298 0.0572,0.0926 -2.250811,3.32209 -2.37386,3.32169 -0.04828,-1.8e-4 -0.265569,-0.14062 -0.482853,-0.31214 l 0,0 z"
       id="path2906"
       transform="translate(0,924.3622)" />
    <path
       style="fill:#0000ff;stroke:#75006a;stroke-width:0.14924555;stroke-linecap:round;stroke-linejoin:round;stroke-miterlimit:4;stroke-opacity:0.39256197;stroke-dasharray:none"
       d="m 41.627332,109.93741 -2.833771,-1.38512 0.386897,-0.77139 c 0.212794,-0.42426 0.949563,-1.93682 1.637265,-3.36124 0.687701,-1.42441 1.265111,-2.60608 1.283131,-2.62592 0.01802,-0.0198 1.273961,0.5693 2.790979,1.30921 l 2.758214,1.34528 -0.363007,0.73194 c -0.199655,0.40257 -0.394072,0.73195 -0.432038,0.73195 -0.03797,0 -0.800204,-0.35292 -1.693862,-0.78426 l -1.624833,-0.78426 -0.217985,0.43017 c -0.119893,0.2366 -0.217986,0.48193 -0.217986,0.54518 0,0.0632 0.59601,0.41024 1.324467,0.77109 0.728457,0.36085 1.342092,0.68404 1.363633,0.71819 0.04185,0.0664 -0.640841,1.47426 -0.714868,1.47426 -0.02421,0 -0.635619,-0.2963 -1.358692,-0.65844 -0.723073,-0.36214 -1.346448,-0.65843 -1.385278,-0.65843 -0.07493,0 -0.546135,0.91026 -0.546135,1.05501 0,0.047 0.76438,0.47079 1.698621,0.94181 l 1.69862,0.8564 -0.3598,0.75184 -0.3598,0.75184 -2.833772,-1.38511 z"
       id="path2908"
       transform="translate(0,924.3622)" />
    <path
       style="fill:#0000ff;stroke:#75006a;stroke-width:0.14924555;stroke-linecap:round;stroke-linejoin:round;stroke-miterlimit:4;stroke-opacity:0.39256197;stroke-dasharray:none"
       d="m 52.289806,113.78604 c -0.522747,-0.15398 -0.983,-0.33922 -1.022785,-0.41164 -0.03979,-0.0724 -0.374541,-1.09959 -0.743901,-2.28258 -0.36936,-1.18299 -0.694777,-2.21015 -0.723148,-2.28258 -0.02931,-0.0748 -0.106321,0.0957 -0.178372,0.39506 -0.163809,0.68055 -0.915054,3.50542 -0.939287,3.53195 -0.01019,0.0112 -0.514793,-0.12146 -1.121331,-0.29471 l -1.102797,-0.31501 0.197391,-0.71489 c 0.585807,-2.1216 1.83139,-6.5139 1.855695,-6.54373 0.01551,-0.019 0.513031,0.10316 1.105611,0.27155 l 1.077418,0.30616 0.744039,2.38194 c 0.409221,1.31007 0.769932,2.3533 0.801578,2.3183 0.03165,-0.035 0.125463,-0.3797 0.208479,-0.76598 0.140787,-0.65509 0.812143,-3.12855 0.85869,-3.16364 0.03273,-0.0247 2.105341,0.56581 2.152893,0.61336 0.02328,0.0233 -0.410672,1.65354 -0.964345,3.62278 -0.692186,2.46189 -1.045527,3.58563 -1.13103,3.59704 -0.06839,0.009 -0.552052,-0.1094 -1.074798,-0.26338 z"
       id="path2910"
       transform="translate(0,924.3622)" />
    <path
       style="fill:#0000ff;stroke:#75006a;stroke-width:0.14924555;stroke-linecap:round;stroke-linejoin:round;stroke-miterlimit:4;stroke-opacity:0.39256197;stroke-dasharray:none"
       d="m 58.63943,114.9518 c -0.632661,-0.12915 -1.64041,-0.68506 -2.016577,-1.1124 -0.724474,-0.82305 -1.004347,-1.84409 -0.869259,-3.17126 0.28998,-2.8489 2.713139,-4.28963 5.476077,-3.25588 1.102204,0.41239 1.92023,1.44613 2.03657,2.57362 l 0.05347,0.51821 -0.342884,-0.0537 c -0.188586,-0.0295 -0.708316,-0.0807 -1.154955,-0.11379 -0.801034,-0.0593 -0.812076,-0.0633 -0.812399,-0.28898 -4.52e-4,-0.31496 -0.292185,-0.76527 -0.635358,-0.9807 -0.224316,-0.14082 -0.395193,-0.17262 -0.791015,-0.14723 -0.607145,0.039 -0.910284,0.28138 -1.21954,0.97526 -0.171195,0.38412 -0.201275,0.60174 -0.203902,1.47519 -0.0027,0.90063 0.01882,1.054 0.177927,1.26755 0.299261,0.40168 0.594144,0.56777 1.097134,0.61797 0.403673,0.0403 0.525298,0.0157 0.784958,-0.15838 0.170459,-0.1143 0.385449,-0.37479 0.482854,-0.58503 l 0.175583,-0.379 0.790123,0.0546 c 0.434568,0.0301 0.953528,0.077 1.153244,0.10436 l 0.363121,0.0497 -0.08763,0.31866 c -0.243291,0.88471 -0.937533,1.70759 -1.753522,2.07842 -0.473754,0.21531 -0.679111,0.25439 -1.431044,0.27237 -0.482853,0.0115 -1.055693,-0.0153 -1.272977,-0.0597 z"
       id="path2912"
       transform="translate(0,924.3622)" />
    <path
       style="fill:#0000ff;stroke:#75006a;stroke-width:0.14924555;stroke-linecap:round;stroke-linejoin:round;stroke-miterlimit:4;stroke-opacity:0.39256197;stroke-dasharray:none"
       d="m 67.026469,114.6487 c -0.02504,-0.19387 -0.08134,-0.81536 -0.125119,-1.38109 l -0.0796,-1.0286 -1.578245,-2.26358 -1.578244,-2.26359 0.318359,-0.0565 c 0.175097,-0.0311 0.776383,-0.0845 1.33619,-0.11862 l 1.017831,-0.0621 0.685287,1.12822 c 0.376907,0.62052 0.72876,1.17598 0.781894,1.23435 0.07219,0.0793 0.233429,-0.23133 0.637948,-1.22908 l 0.541341,-1.33521 0.386788,-0.0563 c 0.212733,-0.031 0.809097,-0.0851 1.325253,-0.1203 l 0.938466,-0.064 -0.757908,1.56886 c -0.416849,0.86287 -0.955564,1.98367 -1.197144,2.49067 l -0.439236,0.92181 0.105613,1.34656 c 0.05809,0.74061 0.07992,1.37226 0.04853,1.40365 -0.0314,0.0314 -0.5668,0.0977 -1.189784,0.14723 l -1.132699,0.0901 -0.04552,-0.3525 0,0 z"
       id="path2914"
       transform="translate(0,924.3622)" />
    <path
       style="fill:#0000ff;stroke:#75006a;stroke-width:0.14924555;stroke-linecap:round;stroke-linejoin:round;stroke-miterlimit:4;stroke-opacity:0.39256197;stroke-dasharray:none"
       d="m 78.743683,112.75176 c -0.539402,-0.0616 -1.037338,-0.24856 -1.379826,-0.51796 -0.266159,-0.20936 -0.767445,-0.8676 -0.706862,-0.92818 0.0228,-0.0228 0.503122,-0.19656 1.067373,-0.38612 l 1.025911,-0.34466 0.316223,0.21459 c 0.492252,0.33405 1.251718,0.23381 1.711415,-0.22589 0.29567,-0.29567 0.315024,-0.5255 0.06341,-0.75304 -0.163875,-0.1482 -0.286331,-0.1623 -1.075446,-0.12384 -2.216716,0.10804 -2.804756,0.0273 -3.361378,-0.46139 -0.639671,-0.56164 -0.904558,-1.6109 -0.604816,-2.39576 0.302969,-0.79332 1.454646,-1.64257 2.680618,-1.97671 0.635264,-0.17315 1.64581,-0.14163 2.111456,0.0658 0.469529,0.2092 0.944134,0.60825 1.156212,0.97215 l 0.151069,0.25921 -1.060324,0.3629 -1.060324,0.36289 -0.221926,-0.17456 c -0.27987,-0.22015 -0.743509,-0.2221 -1.221314,-0.005 -0.397898,0.18067 -0.532228,0.42704 -0.383927,0.70414 0.13514,0.25251 0.2925,0.27087 2.109325,0.24603 l 1.624143,-0.0222 0.476147,0.27008 c 0.69605,0.39482 1.011537,0.98 1.012911,1.87882 7.11e-4,0.46481 -0.04463,0.74459 -0.153074,0.94457 -0.692374,1.27678 -2.670867,2.2178 -4.276999,2.03424 z"
       id="path2916"
       transform="translate(0,924.3622)" />
    <path
       style="fill:#0000ff;stroke:#75006a;stroke-width:0.14924555;stroke-linecap:round;stroke-linejoin:round;stroke-miterlimit:4;stroke-opacity:0.39256197;stroke-dasharray:none"
       d="m 85.604945,110.23783 c -0.04541,-0.0856 -0.837397,-1.56933 -1.759977,-3.2972 -0.922579,-1.72787 -1.677072,-3.16985 -1.67665,-3.20439 9.03e-4,-0.0739 5.346365,-2.9548 5.391321,-2.9056 0.01682,0.0184 0.192307,0.35676 0.38998,0.75189 l 0.359405,0.71842 -1.600229,0.85411 c -0.880126,0.46976 -1.611984,0.86276 -1.626351,0.87332 -0.06006,0.0442 0.465531,1.00574 0.549212,1.00479 0.0503,-5.6e-4 0.682585,-0.31609 1.405083,-0.70118 0.722497,-0.38508 1.338965,-0.67104 1.369929,-0.63546 0.03096,0.0356 0.220793,0.36716 0.421844,0.73683 l 0.365547,0.67213 -1.252623,0.66834 c -0.688942,0.36758 -1.310397,0.70474 -1.38101,0.74923 -0.108718,0.0685 -0.08943,0.16241 0.125882,0.6129 0.139847,0.29259 0.30015,0.53199 0.356228,0.53199 0.05608,0 0.802001,-0.37617 1.657608,-0.83593 0.855607,-0.45975 1.595703,-0.84494 1.644659,-0.85596 0.113876,-0.0256 0.879842,1.36205 0.796236,1.44253 -0.03446,0.0332 -1.030552,0.58066 -2.213543,1.21665 -1.18299,0.63598 -2.395939,1.29175 -2.695441,1.45726 -0.501413,0.2771 -0.55109,0.28861 -0.62711,0.14533 z"
       id="path2918"
       transform="translate(0,924.3622)" />
    <path
       style="fill:#0000ff;stroke:#75006a;stroke-width:0.14924555;stroke-linecap:round;stroke-linejoin:round;stroke-miterlimit:4;stroke-opacity:0.39256197;stroke-dasharray:none"
       d="m 90.662405,103.38811 c -1.225182,-1.58134 -2.255426,-2.92144 -2.289432,-2.97799 -0.03907,-0.065 0.447521,-0.50147 1.321793,-1.18573 1.90721,-1.492703 2.195147,-1.695542 2.839773,-2.000499 0.957797,-0.453111 1.683774,-0.344628 2.305669,0.344534 0.657995,0.729168 0.81415,1.392888 0.493809,2.098875 l -0.173986,0.38344 0.197862,-0.05427 c 0.877732,-0.24074 1.266324,-0.109376 1.886153,0.63762 0.697079,0.84008 1.018592,1.15183 1.18793,1.15183 0.244503,0 0.143062,0.10346 -0.872555,0.88994 l -0.931116,0.72105 -0.755754,-0.80866 c -0.688412,-0.73661 -0.784198,-0.80839 -1.074968,-0.8055 -0.222728,0.002 -0.478253,0.10937 -0.845377,0.35453 -0.841859,0.56217 -0.841655,0.48152 -0.0039,1.55614 0.405487,0.52015 0.76433,0.99001 0.797428,1.04414 0.03609,0.059 -0.305767,0.38408 -0.85403,0.81207 -0.502816,0.39251 -0.93389,0.71365 -0.957942,0.71365 -0.02405,0 -1.046154,-1.29382 -2.271335,-2.87517 z m 2.239063,-2.48011 c 0.804668,-0.65482 0.971453,-1.135559 0.534471,-1.54054 -0.414373,-0.384028 -0.876683,-0.262043 -1.764721,0.465637 -0.205343,0.168263 -0.373351,0.335473 -0.373351,0.371573 0,0.0361 0.201891,0.32716 0.448648,0.6468 0.295319,0.38254 0.486386,0.55902 0.559069,0.51638 0.06073,-0.0356 0.328879,-0.24256 0.595884,-0.45985 z"
       id="path2920"
       transform="translate(0,924.3622)" />
    <path
       style="fill:#0000ff;stroke:#75006a;stroke-width:0.14924555;stroke-linecap:round;stroke-linejoin:round;stroke-miterlimit:4;stroke-opacity:0.39256197;stroke-dasharray:none"
       d="m 97.689259,97.331075 -3.572943,-1.545124 0.256678,-0.314146 c 0.141172,-0.17278 0.504552,-0.581688 0.80751,-0.908686 l 0.550833,-0.59454 2.309615,1.196677 c 1.270288,0.658173 2.324408,1.181888 2.342478,1.163812 0.0181,-0.01808 -0.560811,-0.960643 -1.286417,-2.094593 -0.725607,-1.133949 -1.357304,-2.132511 -1.403772,-2.219026 -0.06918,-0.128808 0.05557,-0.314302 0.688739,-1.024106 0.425274,-0.476744 0.793992,-0.870157 0.819374,-0.874251 0.0369,-0.006 1.525306,2.686269 3.615326,6.539381 l 0.24155,0.445314 -0.79807,0.893506 c -0.43894,0.491428 -0.84304,0.890671 -0.89801,0.887206 -0.055,-0.0035 -1.707773,-0.701607 -3.672891,-1.551424 l 0,0 z"
       id="path2922"
       transform="translate(0,924.3622)" />
    <path
       style="fill:#0000ff;stroke:#75006a;stroke-width:0.14924555;stroke-linecap:round;stroke-linejoin:round;stroke-miterlimit:4;stroke-opacity:0.39256197;stroke-dasharray:none"
       d="m 102.75466,91.550055 c -1.6417,-1.135292 -3.022195,-2.10135 -3.067761,-2.146794 -0.09508,-0.09483 1.175151,-2.02884 1.305131,-1.987139 0.0445,0.01429 1.45038,0.971861 3.12408,2.127932 l 3.04309,2.101946 -0.66592,0.983693 c -0.36626,0.541031 -0.68567,0.983881 -0.70982,0.984111 -0.0241,2.31e-4 -1.3871,-0.928456 -3.0288,-2.063749 z"
       id="path2924"
       transform="translate(0,924.3622)" />
    <path
       style="fill:#0000ff;stroke:#75006a;stroke-width:0.14924555;stroke-linecap:round;stroke-linejoin:round;stroke-miterlimit:4;stroke-opacity:0.39256197;stroke-dasharray:none"
       d="m 106.00294,88.913983 c -1.325,-0.328141 -2.59909,-1.314847 -3.1039,-2.403785 -0.32432,-0.699607 -0.3683,-1.842932 -0.10132,-2.633745 0.3724,-1.103069 1.21784,-2.135137 2.10119,-2.565019 0.49431,-0.240553 1.4295,-0.310108 2.07795,-0.154548 l 0.4633,0.111145 -0.51058,1.018888 -0.51059,1.018889 -0.52214,-0.02898 c -0.46178,-0.02563 -0.55471,-0.0016 -0.80377,0.207988 -0.79366,0.667819 -0.73088,1.703795 0.14372,2.371603 0.54251,0.414234 1.45461,0.830797 1.94671,0.889079 0.76407,0.09049 1.45138,-0.472368 1.5593,-1.276973 0.051,-0.380097 -0.11368,-0.767527 -0.46441,-1.092745 l -0.22499,-0.208627 0.50935,-1.023263 c 0.28014,-0.562795 0.53892,-1.023263 0.57505,-1.023263 0.0361,0 0.27397,0.209197 0.52852,0.464883 0.53946,0.541872 0.82301,1.070091 0.95358,1.776406 0.27311,1.477411 -0.77287,3.483481 -2.22096,4.259549 -0.50316,0.269654 -0.62671,0.297817 -1.38641,0.316021 -0.45871,0.01099 -0.91303,4.21e-4 -1.0096,-0.0235 l 0,0 z"
       id="path2926"
       transform="translate(0,924.3622)" />
    <path
       style="fill:#0000ff;stroke:#75006a;stroke-width:0.14924555;stroke-linecap:round;stroke-linejoin:round;stroke-miterlimit:4;stroke-opacity:0.39256197;stroke-dasharray:none"
       d="m 108.76837,80.363462 c -2.87065,-0.893655 -3.55326,-1.135077 -3.54366,-1.253298 0.01,-0.123456 1.69297,-5.689172 1.73661,-5.743193 0.0121,-0.01499 1.1318,0.320803 1.51252,0.453605 0.067,0.02339 -0.0719,0.600047 -0.41701,1.731144 -0.28464,0.932842 -0.51754,1.739294 -0.51754,1.792116 0,0.09254 1.0268,0.452701 1.08146,0.379334 0.0148,-0.01981 0.21615,-0.668116 0.44754,-1.440682 0.23138,-0.772565 0.44622,-1.431082 0.4774,-1.463372 0.0579,-0.05994 1.40815,0.332823 1.52669,0.444087 0.0359,0.03372 -0.13332,0.703139 -0.37611,1.487593 -0.24279,0.784454 -0.42222,1.457369 -0.39874,1.495366 0.0547,0.08847 1.0921,0.404552 1.14714,0.349509 0.0228,-0.02279 0.28356,-0.829118 0.57948,-1.791847 0.29592,-0.962729 0.55306,-1.775445 0.57141,-1.806035 0.0643,-0.107192 1.57242,0.423211 1.56144,0.549155 -0.0136,0.156281 -1.70819,5.710198 -1.77926,5.831524 -0.034,0.0581 -1.36046,-0.314904 -3.60937,-1.015006 z"
       id="path2928"
       transform="translate(0,924.3622)" />
    <path
       style="fill:#0000ff;stroke:#75006a;stroke-width:0.14924555;stroke-linecap:round;stroke-linejoin:round;stroke-miterlimit:4;stroke-opacity:0.39256197;stroke-dasharray:none"
       d="m 102.55048,40.352643 c -1.74593,-0.232718 -3.43917,-2.273556 -3.43917,-4.14517 0,-1.283164 0.847019,-2.551383 2.26005,-3.383907 1.54719,-0.911573 3.27736,-0.66878 4.53885,0.636935 0.98655,1.021126 1.46798,2.292917 1.29313,3.416004 -0.17904,1.150019 -0.94513,2.233781 -2.0239,2.863134 -0.93854,0.54754 -1.73202,0.732559 -2.62896,0.613004 z m 0.86102,-2.369209 c 0.60229,-0.273196 1.28707,-0.830227 1.52976,-1.244369 0.33062,-0.5642 0.3668,-0.995622 0.12289,-1.465278 -0.30102,-0.579637 -0.58813,-0.752367 -1.24079,-0.746474 -0.66015,0.006 -1.27387,0.2933 -1.92269,0.900194 -0.79364,0.742354 -0.97067,1.428172 -0.54007,2.092245 0.12654,0.195161 0.33395,0.419302 0.4609,0.49809 0.32739,0.20318 1.10323,0.18639 1.59,-0.03441 l 0,0 z"
       id="path2930"
       transform="translate(0,924.3622)" />
    <path
       style="fill:#0000ff;stroke:#75006a;stroke-width:0.14924555;stroke-linecap:round;stroke-linejoin:round;stroke-miterlimit:4;stroke-opacity:0.39256197;stroke-dasharray:none"
       d=""
       id="path2932"
       transform="translate(0,924.3622)" />
    <path
       style="fill:#0000ff;stroke:#75006a;stroke-width:0.14924555;stroke-linecap:round;stroke-linejoin:round;stroke-miterlimit:4;stroke-opacity:0.39256197;stroke-dasharray:none"
       d="m 96.209906,33.595962 -0.815541,-0.884536 0.300173,-0.293358 c 0.761454,-0.744164 5.200392,-4.787281 5.255952,-4.787281 0.0888,0 1.59515,1.684588 1.56539,1.750612 -0.0135,0.03001 -0.81472,0.782555 -1.78043,1.67232 -0.965704,0.889765 -2.195517,2.024786 -2.732915,2.522267 l -0.977088,0.904512 -0.815541,-0.884536 z"
       id="path2934"
       transform="translate(0,924.3622)" />
    <path
       style="fill:#0000ff;stroke:#75006a;stroke-width:0.14924555;stroke-linecap:round;stroke-linejoin:round;stroke-miterlimit:4;stroke-opacity:0.39256197;stroke-dasharray:none"
       d="m 93.668237,30.45576 c -0.919369,-0.306811 -1.033459,-0.384015 -3.054821,-2.067172 l -1.255095,-1.045098 0.167908,-0.18557 c 0.09235,-0.102063 1.1648,-1.390508 2.383222,-2.86321 1.218422,-1.472702 2.243103,-2.688222 2.277069,-2.701154 0.106533,-0.04056 2.873571,2.328406 3.292719,2.819025 0.219611,0.257057 0.508767,0.701128 0.642568,0.986824 0.209321,0.446948 0.242144,0.6236 0.235171,1.265676 -0.006,0.557228 -0.05517,0.851558 -0.193926,1.162106 -0.419732,0.939378 -1.488932,2.066377 -2.36927,2.497349 -0.617111,0.302108 -1.457936,0.354018 -2.125545,0.131224 z m 1.167699,-2.304884 c 0.479778,-0.317792 1.157406,-1.182654 1.300296,-1.659578 0.175515,-0.585816 0.04226,-0.943591 -0.58547,-1.571894 l -0.559977,-0.560491 -1.31971,1.583138 c -0.725841,0.870726 -1.31971,1.612419 -1.31971,1.648207 0,0.08018 0.190147,0.236151 0.697572,0.572183 0.559623,0.370599 1.216453,0.366348 1.786999,-0.01157 z"
       id="path2936"
       transform="translate(0,924.3622)" />
    <path
       style="fill:#0000ff;stroke:#75006a;stroke-width:0.14924555;stroke-linecap:round;stroke-linejoin:round;stroke-miterlimit:4;stroke-opacity:0.39256197;stroke-dasharray:none"
       d="m 87.85752,26.373519 c -0.516059,-0.300383 -0.957537,-0.565398 -0.981062,-0.588924 -0.02353,-0.02352 0.0096,-0.268054 0.0736,-0.543397 l 0.116374,-0.500625 -1.10398,-0.621248 -1.10398,-0.621249 -0.373109,0.366178 -0.373109,0.366179 -0.972009,-0.546336 c -0.534606,-0.300485 -0.988634,-0.573234 -1.008951,-0.606109 -0.02032,-0.03288 1.319742,-1.233058 2.977911,-2.667074 l 3.014854,-2.607301 1.024804,0.582997 c 0.563643,0.320648 1.043678,0.63218 1.066746,0.692292 0.02307,0.06011 -0.238677,1.742212 -0.581654,3.737998 -0.732517,4.262523 -0.704104,4.112772 -0.779278,4.107162 -0.03238,-0.0024 -0.481098,-0.25016 -0.997157,-0.550543 l 0,0 z M 87.79037,21.77062 c 0.179243,-0.760447 0.309566,-1.400418 0.289607,-1.422157 -0.05264,-0.05734 -2.054708,1.955619 -2.027178,2.038209 0.02878,0.08635 1.324636,0.836589 1.37501,0.79607 0.02017,-0.01622 0.183318,-0.651675 0.362561,-1.412122 l 0,0 z"
       id="path2938"
       transform="translate(0,924.3622)" />
    <path
       style="fill:#0000ff;stroke:#75006a;stroke-width:0.14924555;stroke-linecap:round;stroke-linejoin:round;stroke-miterlimit:4;stroke-opacity:0.39256197;stroke-dasharray:none"
       d="m 80.690896,22.582015 c -0.594877,-0.207533 -1.107482,-0.40322 -1.139122,-0.434861 -0.03164,-0.03164 0.03689,-0.400891 0.152299,-0.820556 0.267569,-0.972999 0.310979,-1.353989 0.181779,-1.595402 -0.108088,-0.201965 -0.995164,-0.662067 -1.449439,-0.751785 l -0.263375,-0.05202 -0.37866,1.129151 c -0.208263,0.621033 -0.407956,1.176553 -0.443762,1.234488 -0.08818,0.14268 -2.254475,-0.617115 -2.240771,-0.785916 0.01472,-0.18137 2.334416,-6.866801 2.413578,-6.956014 0.08264,-0.09314 3.434814,1.056693 4.336858,1.487586 1.210827,0.578394 1.68023,1.182769 1.600608,2.060849 -0.09758,1.076109 -0.80366,1.929681 -1.596248,1.929681 -0.171397,0 -0.31163,0.02521 -0.31163,0.05603 0,0.03081 0.158024,0.227463 0.351166,0.436996 0.319295,0.346395 0.351166,0.42399 0.351166,0.854988 0,0.281297 -0.109188,0.826416 -0.26856,1.340782 -0.20067,0.647652 -0.245511,0.904573 -0.177381,1.016329 0.05015,0.08226 0.06236,0.166989 0.02713,0.188286 -0.03522,0.0213 -0.550763,-0.131079 -1.145639,-0.338612 z m 0.207669,-4.911572 c 0.294122,-0.294122 0.297661,-0.817997 0.0074,-1.090712 -0.239321,-0.224831 -1.556672,-0.741583 -1.645496,-0.645472 -0.129326,0.139937 -0.518949,1.369995 -0.45418,1.433868 0.114368,0.112785 1.367822,0.506407 1.631401,0.512309 0.148995,0.0033 0.330081,-0.07917 0.460906,-0.209993 l 0,0 z"
       id="path2940"
       transform="translate(0,924.3622)" />
    <path
       style="fill:#0000ff;stroke:#75006a;stroke-width:0.14924555;stroke-linecap:round;stroke-linejoin:round;stroke-miterlimit:4;stroke-opacity:0.39256197;stroke-dasharray:none"
       d="m 69.5289,19.625581 c -0.505167,-0.04378 -0.939735,-0.100962 -0.965706,-0.127077 -0.02597,-0.02611 -0.04722,-0.508269 -0.04722,-1.071454 0,-0.649119 -0.0395,-1.092903 -0.107887,-1.212269 -0.141719,-0.247347 -0.540747,-0.38288 -1.30699,-0.44393 l -0.624753,-0.04978 -0.05296,0.384898 c -0.02913,0.211694 -0.07957,0.813436 -0.11208,1.337204 l -0.05912,0.952306 -0.448352,-0.04935 c -0.246594,-0.02714 -0.798277,-0.07552 -1.225962,-0.107508 l -0.77761,-0.05816 0.04633,-0.318048 c 0.02548,-0.174927 0.154742,-1.839036 0.287241,-3.698021 0.132499,-1.858985 0.271598,-3.415183 0.309108,-3.458217 0.0836,-0.09591 3.727964,0.174644 4.613005,0.342469 0.664705,0.126044 1.379787,0.440753 1.629517,0.717153 0.387865,0.429288 0.531913,1.334961 0.328703,2.06665 -0.124822,0.44944 -0.487127,0.852749 -0.949974,1.057488 l -0.388993,0.17207 0.407107,0.223879 c 0.637958,0.35083 0.76014,0.690083 0.76014,2.110615 0,0.713117 0.0337,1.157467 0.08779,1.157467 0.04829,0 0.08779,0.03951 0.08779,0.08779 0,0.0989 -0.184276,0.0969 -1.489131,-0.01618 z m -1.021427,-4.561079 c 0.432479,-0.19705 0.443364,-0.984015 0.01747,-1.263072 -0.211064,-0.138294 -1.703543,-0.351698 -1.798134,-0.257108 -0.106771,0.106772 -0.163306,1.486577 -0.06363,1.552885 0.154637,0.102866 1.603119,0.07718 1.84429,-0.0327 l 0,0 z"
       id="path2942"
       transform="translate(0,924.3622)" />
    <path
       style="fill:#0000ff;stroke:#75006a;stroke-width:0.14924555;stroke-linecap:round;stroke-linejoin:round;stroke-miterlimit:4;stroke-opacity:0.39256197;stroke-dasharray:none"
       d="m 57.387038,19.721822 c -1.174552,-0.276721 -1.924372,-1.202482 -2.162492,-2.66991 -0.140254,-0.864324 -0.533504,-4.552755 -0.490036,-4.596223 0.03294,-0.03294 1.928514,-0.263497 2.239371,-0.272374 0.111064,-0.0032 0.176767,0.396206 0.381435,2.318545 0.300375,2.82127 0.321265,2.92126 0.676891,3.239901 0.257995,0.231163 0.323719,0.248108 0.835844,0.215498 0.434554,-0.02767 0.604553,-0.08117 0.779132,-0.245173 0.411167,-0.386272 0.421626,-0.642631 0.13458,-3.298786 -0.144995,-1.341699 -0.246612,-2.456469 -0.225815,-2.477266 0.07655,-0.07655 2.279609,-0.282444 2.334152,-0.218146 0.112947,0.133145 0.548631,4.770559 0.4954,5.273031 -0.16508,1.558279 -0.981285,2.361668 -2.741498,2.698453 -0.731893,0.140034 -1.738868,0.154512 -2.256964,0.03245 z"
       id="path2944"
       transform="translate(0,924.3622)" />
    <path
       style="fill:#0000ff;stroke:#75006a;stroke-width:0.14924555;stroke-linecap:round;stroke-linejoin:round;stroke-miterlimit:4;stroke-opacity:0.39256197;stroke-dasharray:none"
       d="m 48.538,21.981502 c -0.003,-0.0073 -0.490097,-1.63302 -1.082495,-3.612718 -0.705756,-2.358524 -1.04439,-3.618271 -0.982246,-3.654039 0.11231,-0.06464 5.373309,-1.630501 5.61904,-1.672424 0.142487,-0.02431 0.20713,0.09428 0.413124,0.757875 0.134314,0.432681 0.236079,0.792789 0.226144,0.80024 -0.0099,0.0075 -0.788433,0.241415 -1.729997,0.519918 -0.941563,0.278504 -1.736502,0.520069 -1.766531,0.536811 -0.08807,0.0491 0.210037,1.014311 0.327153,1.059252 0.05874,0.02254 0.709732,-0.139665 1.446646,-0.360457 0.736913,-0.220793 1.386956,-0.401442 1.444539,-0.401442 0.09033,0 0.585528,1.488023 0.520594,1.564346 -0.0131,0.0154 -0.663643,0.220083 -1.445652,0.454858 -0.782008,0.234776 -1.442998,0.448028 -1.468865,0.473895 -0.05737,0.05737 0.260314,1.194144 0.333713,1.194144 0.02872,0 0.855362,-0.238903 1.836974,-0.530896 1.314884,-0.391128 1.801937,-0.503083 1.85004,-0.425251 0.09275,0.150067 0.465607,1.481268 0.423839,1.513208 -0.01908,0.01459 -0.982834,0.308997 -2.141682,0.654242 -1.158847,0.345245 -2.492181,0.743364 -2.962962,0.884711 -0.470782,0.141346 -0.858401,0.251023 -0.861376,0.243727 l 0,0 z"
       id="path2946"
       transform="translate(0,924.3622)" />
    <path
       style="fill:#0000ff;stroke:#75006a;stroke-width:0.14924555;stroke-linecap:round;stroke-linejoin:round;stroke-miterlimit:4;stroke-opacity:0.39256197;stroke-dasharray:none"
       d="m 42.235667,21.829851 -1.239147,-2.542318 -0.971269,0.48711 c -0.534199,0.267911 -0.999112,0.46986 -1.03314,0.448777 -0.09294,-0.05758 -0.847989,-1.624904 -0.803083,-1.667029 0.05772,-0.05415 6.044299,-3.04083 6.09511,-3.04083 0.05184,0 0.835402,1.545289 0.835402,1.647521 0,0.03893 -0.434568,0.2852 -0.965706,0.547266 -0.531139,0.262066 -0.965707,0.503446 -0.965707,0.536402 0,0.03296 0.552049,1.177812 1.226775,2.544128 0.674726,1.366316 1.217936,2.491841 1.207133,2.501168 -0.0108,0.0093 -0.498347,0.25617 -1.083431,0.548541 l -1.06379,0.531582 -1.239147,-2.542318 z"
       id="path2948"
       transform="translate(0,924.3622)" />
    <path
       style="fill:#0000ff;stroke:#75006a;stroke-width:0.14924555;stroke-linecap:round;stroke-linejoin:round;stroke-miterlimit:4;stroke-opacity:0.39256197;stroke-dasharray:none"
       d="m 35.427984,29.408565 c -0.02548,-0.0845 -0.484526,-1.753635 -1.020106,-3.709191 -0.53558,-1.955555 -0.992961,-3.620999 -1.016402,-3.700985 -0.03092,-0.105504 0.216347,-0.331956 0.900669,-0.824853 0.518808,-0.373684 0.995011,-0.683549 1.058227,-0.68859 0.06322,-0.005 1.570125,1.017426 3.348686,2.272149 l 3.233747,2.281316 -0.778066,0.548633 c -1.32683,0.935579 -1.150046,0.879558 -1.603363,0.508099 L 39.157188,25.772135 38.11219,26.5038 37.067192,27.235464 37.229356,27.7068 c 0.08919,0.259235 0.143213,0.501998 0.120052,0.539474 -0.04427,0.07163 -1.786623,1.315926 -1.842654,1.315926 -0.01785,0 -0.05329,-0.06914 -0.07877,-0.153635 l 0,0 z m 1.794704,-4.115775 c 0.311444,-0.223621 0.598227,-0.435339 0.637294,-0.470483 0.03907,-0.03514 -0.431027,-0.465215 -1.044654,-0.955712 C 36.2017,23.376098 35.681994,22.99243 35.660424,23.014 c -0.05381,0.05381 0.865213,2.685374 0.937816,2.685374 0.032,0 0.313004,-0.182963 0.624448,-0.406584 l 0,0 z"
       id="path2950"
       transform="translate(0,924.3622)" />
    <path
       style="fill:#0000ff;stroke:#75006a;stroke-width:0.14924555;stroke-linecap:round;stroke-linejoin:round;stroke-miterlimit:4;stroke-opacity:0.39256197;stroke-dasharray:none"
       d="m 26.281289,33.858411 c -1.493009,-1.402965 -2.724691,-2.578881 -2.737072,-2.613147 -0.02726,-0.07543 1.910097,-2.17223 1.987316,-2.150869 0.02992,0.0083 1.015033,0.515955 2.189141,1.128175 1.174108,0.612221 2.148311,1.099276 2.164897,1.082346 0.01659,-0.01693 -0.536948,-0.975447 -1.230075,-2.130038 -1.229825,-2.048608 -1.256601,-2.103869 -1.109816,-2.290476 0.08273,-0.10517 0.532329,-0.598669 0.999114,-1.096664 l 0.848702,-0.905445 2.088473,1.96684 c 1.148659,1.081761 2.383752,2.247805 2.74465,2.591209 l 0.656177,0.624369 -0.731477,0.797641 -0.731476,0.79764 -1.195419,-1.135791 c -0.65748,-0.624685 -1.432456,-1.409977 -1.722168,-1.745094 -0.289712,-0.335117 -0.538194,-0.577729 -0.552182,-0.539138 -0.01399,0.03859 0.550543,1.028657 1.254514,2.200146 0.703971,1.171489 1.268503,2.159607 1.254514,2.195818 -0.01399,0.03621 -0.266746,0.322796 -0.561686,0.636854 l -0.536252,0.571015 -2.264429,-1.176425 c -1.245436,-0.647034 -2.278747,-1.162107 -2.296247,-1.144607 -0.0175,0.0175 0.353917,0.348102 0.825372,0.734671 0.471456,0.386568 1.300597,1.123507 1.842537,1.637641 l 0.985346,0.934791 -0.715648,0.768083 c -0.393607,0.422447 -0.721633,0.777809 -0.728947,0.789692 -0.0073,0.01188 -1.234851,-1.126272 -2.727859,-2.529237 l 0,0 z"
       id="path2952"
       transform="translate(0,924.3622)" />
    <path
       style="fill:#0000ff;stroke:#75006a;stroke-width:0.14924555000000000;stroke-linecap:round;stroke-linejoin:round;stroke-miterlimit:4;stroke-opacity:0.39256196999999998;stroke-dasharray:none"
       d="m 21.986484,40.734365 c -1.343173,-1.678299 -2.471184,-3.090958 -2.506692,-3.139243 -0.09223,-0.125421 1.157918,-2.149162 1.328216,-2.150116 0.174521,-9.78e-4 7.632267,1.551326 7.679377,1.598436 0.01911,0.01911 -0.230835,0.47865 -0.555437,1.021197 -0.645264,1.078508 -0.528853,1.005188 -1.343946,0.846466 l -0.314803,-0.0613 -0.628956,1.02266 c -0.345925,0.562462 -0.628955,1.072409 -0.628955,1.133215 0,0.06081 0.138271,0.244574 0.30727,0.408374 0.168999,0.1638 0.30727,0.328524 0.30727,0.366053 0,0.05089 -1.071868,1.848256 -1.182609,1.983066 -0.01023,0.01246 -1.117562,-1.350508 -2.460735,-3.028806 l 0,0 z m 2.386712,-1.653043 c 0.205631,-0.334557 0.374964,-0.632116 0.376296,-0.661242 0.0029,-0.0624 -2.723604,-0.805838 -2.773242,-0.7562 -0.06199,0.06199 1.841394,2.086286 1.932968,2.055762 0.04956,-0.01652 0.258347,-0.303763 0.463978,-0.63832 l 0,0 z"
       id="path2954"
       transform="translate(0,924.3622)" />
    <path
       style="fill:#ff0000;stroke:#75006a;stroke-width:0.14924555;stroke-linecap:round;stroke-linejoin:round;stroke-miterlimit:4;stroke-opacity:0.39256197;stroke-dasharray:none"
       d="m 82.204119,50.017618 c 0.03052,-2.486694 0.0784,-4.827435 0.106391,-5.201646 0.02799,-0.374211 0.01709,-0.680384 -0.02423,-0.680384 -0.06127,0 -3.367443,6.048794 -5.056995,9.25201 -0.229356,0.434834 -0.41701,0.744982 -0.41701,0.689218 0,-0.05576 -0.317193,-0.823223 -0.704873,-1.705462 -0.387681,-0.882241 -0.693853,-1.655223 -0.680384,-1.71774 0.02533,-0.117579 7.99786,-11.167372 8.033664,-11.134528 0.01108,0.01017 0.176383,1.768133 0.367335,3.906592 0.190951,2.13846 0.360802,3.901727 0.377447,3.918371 0.01664,0.01665 1.88156,-2.121732 4.144257,-4.751948 2.262697,-2.630216 4.130138,-4.766067 4.149867,-4.746337 0.03206,0.03206 -10.170964,16.520504 -10.298615,16.642921 -0.02879,0.02761 -0.02737,-1.984373 0.0032,-4.471067 z"
       id="path2956"
       transform="translate(0,924.3622)" />
    <path
       style="fill:#ff0000;stroke:#75006a;stroke-width:0.14924555;stroke-linecap:round;stroke-linejoin:round;stroke-miterlimit:4;stroke-opacity:0.39256197;stroke-dasharray:none"
       d="m 35.215408,89.603318 c 0.01517,-0.05766 2.259688,-3.916293 4.987808,-8.57474 l 4.96022,-8.469904 0.04408,5.20958 c 0.02424,2.86527 0.06549,5.230995 0.09166,5.257168 0.02617,0.02617 1.191524,-2.218227 2.589669,-4.987556 1.839705,-3.643937 2.563142,-4.998389 2.61831,-4.902116 0.04193,0.07317 0.387678,0.845306 0.768338,1.71587 0.687887,1.573193 0.691169,1.584277 0.53831,1.818204 -1.21521,1.859679 -7.533599,10.958766 -7.575844,10.909945 -0.0316,-0.03652 -0.249985,-1.775045 -0.485293,-3.863385 -0.235309,-2.08834 -0.453819,-3.796982 -0.485576,-3.796982 -0.03176,0 -1.790912,2.12231 -3.909231,4.716245 -4.175671,5.113213 -4.183097,5.122119 -4.142452,4.967671 z"
       id="path2958"
       transform="translate(0,924.3622)" />
    <path
       style="fill:#ff0000;stroke:#75006a;stroke-width:0.14924555;stroke-linecap:round;stroke-linejoin:round;stroke-miterlimit:4;stroke-opacity:0.39256197;stroke-dasharray:none"
       d="M 63.225909,100.47775 C 62.858398,100.36827 62.413896,99.929734 62.16033,99.426483 62.021709,99.15136 59.569705,93.573174 56.711433,87.030513 53.853161,80.487851 50.968606,73.890321 50.301312,72.369333 47.80965,66.689998 47.306043,65.504538 47.158443,64.971212 47.045161,64.561883 47.008811,64.1038 47.014027,63.151226 c 0.0061,-1.118114 0.03396,-1.353079 0.228873,-1.931413 0.209999,-0.62311 14.392789,-33.146193 14.885292,-34.134016 0.285667,-0.572966 0.788052,-1.041263 1.199959,-1.118537 0.425931,-0.07991 1.014654,0.214879 1.32579,0.663847 0.195819,0.282569 9.289153,20.94344 11.455987,26.029035 0.329169,0.772565 1.236784,2.846639 2.016922,4.609054 1.959605,4.426956 1.886752,4.196067 1.883661,5.969821 -0.0021,1.223468 -0.03038,1.530412 -0.181774,1.975309 -0.167941,0.493517 -14.616704,33.609334 -14.960446,34.288567 -0.171647,0.339174 -0.806059,0.958977 -0.983572,0.960917 -0.06022,7e-4 -0.188498,0.0174 -0.285069,0.0371 -0.09657,0.0197 -0.264754,0.009 -0.373741,-0.0231 z m 0.567647,-1.090584 c 0.09934,-0.108642 0.240397,-0.31605 0.31346,-0.460906 0.267643,-0.530627 14.498175,-33.11484 14.695171,-33.648116 0.412405,-1.116391 0.429957,-2.906222 0.03922,-3.999699 C 78.603413,60.612401 64.37422,28.079652 64.062293,27.488379 c -0.314005,-0.59521 -0.528174,-0.701159 -0.822332,-0.406807 -0.307708,0.30791 -15.025233,34.010947 -15.195099,34.796677 -0.172072,0.795936 -0.116052,2.530503 0.101888,3.154743 0.350429,1.003725 14.909324,34.174018 15.078517,34.354174 0.102031,0.108642 0.230997,0.19753 0.286591,0.19753 0.05559,0 0.182359,-0.08889 0.281698,-0.19753 z"
       id="path2960"
       transform="translate(0,924.3622)" />
    <path
       style="fill:#ff0000;stroke:#75006a;stroke-width:0.14924555;stroke-linecap:round;stroke-linejoin:round;stroke-miterlimit:4;stroke-opacity:0.39256197;stroke-dasharray:none"
       d="M 20.600902,104.04011 C 11.266409,93.995855 5.8146209,81.510386 4.7209492,67.672488 4.5779753,65.863482 4.5787997,60.804024 4.7223725,58.937234 5.5606442,48.037702 9.2324874,37.769288 15.445368,28.95007 19.785519,22.789201 25.579235,17.215859 31.819129,13.199114 40.212288,7.7962666 49.5001,4.6759618 59.561241,3.8789587 c 1.809972,-0.1433787 6.881386,-0.1433787 8.691358,0 10.054889,0.7965078 19.354169,3.9206654 27.742113,9.3201553 7.775908,5.005506 14.677398,12.269322 19.267078,20.278587 4.53395,7.911998 7.10291,16.278631 7.83079,25.503429 0.14374,1.821699 0.14293,6.892943 -0.001,8.691358 -1.11501,13.894333 -6.53964,26.318933 -15.87825,36.367622 l -0.91786,0.98766 -2.99049,0 -2.99048,0 1.13248,-1.07273 c 7.55043,-7.15207 12.63921,-15.462279 15.49706,-25.307385 2.03729,-7.01834 2.62947,-15.064356 1.66157,-22.576117 C 116.54084,40.050195 107.52171,25.698073 93.931611,16.808528 87.077276,12.324975 79.33141,9.4570252 71.149718,8.3734064 c -4.619576,-0.6118367 -9.86602,-0.6118367 -14.485596,0 -8.180509,1.0834622 -15.928549,3.9522166 -22.781893,8.4351216 -13.59511,8.892826 -22.608472,23.235753 -24.6736045,39.26301 -0.6009918,4.66423 -0.6009918,9.846312 0,14.510542 0.9109345,7.069662 3.2898845,14.173223 6.7840385,20.257188 2.834651,4.935646 6.109271,9.075489 10.374587,13.115772 l 1.132483,1.07273 -2.990484,0 -2.990485,0 -0.917862,-0.98766 0,0 z"
       id="path2962"
       transform="translate(0,924.3622)" />
    <path
       style="fill:#ff0000;stroke:#75006a;stroke-width:0.27820548;stroke-linecap:round;stroke-linejoin:round;stroke-miterlimit:4;stroke-opacity:0.39256197;stroke-dasharray:none"
       d="m 59.864374,122.7642 c -0.270023,-0.0368 -1.30102,-0.14756 -2.291104,-0.24612 -10.600765,-1.05536 -21.640483,-5.53734 -30.086001,-12.21452 -1.47006,-1.16226 -4.425964,-3.75129 -5.171825,-4.52992 l -0.563967,-0.58875 2.936896,0.002 2.936895,0.002 1.718328,1.39358 c 7.218865,5.85453 15.7226,9.73269 24.874843,11.34427 3.824291,0.67341 4.911171,0.75714 9.737192,0.75019 3.585413,-0.005 5.246051,-0.0765 6.791487,-0.29156 10.623921,-1.47874 19.714997,-5.35394 27.787432,-11.84479 l 1.68521,-1.35504 2.897,0.006 2.89699,0.006 -1.60825,1.55805 c -8.671527,8.40082 -20.564646,14.00351 -33.331082,15.70184 -1.928872,0.2566 -9.966287,0.47723 -11.210044,0.30772 l 0,0 z"
       id="path2964"
       transform="translate(0,924.3622)" />
    <rect
       style="fill:#ff0000;fill-rule:evenodd;stroke:#000000;stroke-width:0.65686351px;stroke-linecap:butt;stroke-linejoin:miter;stroke-opacity:0"
       id="rect3775"
       width="5.5390329"
       height="0.56815553"
       x="21.859852"
       y="1029.2181"
       rx="0.76850814"
       ry="0.12986414" />
  </g>
</svg>
